<svg id="Layer_1" data-name="Layer 1" xmlns="http://www.w3.org/2000/svg" viewBox="0 0 512 512"><defs><style>.cls-1{fill:#cf4929;}</style></defs><path class="cls-1" d="M280-.85c-12.84,15.69-20.9,39.73-11.41,52.42,20.49,27.41,5.37,49.93-4.15,75.91l43.17,6.3L261.22,174.2l36,26.51,14.45-31.19,29.81,31.71-17.14,25.23L293.49,209,252,249.08H356.93c-4.06,7.1-8.11,14.21-11.16,19.56L249.82,260c7.9,20.42,12.76,33,17.85,46.11l-12.09,14.52,12.59,18.26L245.9,386.45c-2.46-22.05-4.18-37.46-6.41-57.48H152.31l15.37-38.33h30.49l18.57,34.28c11.33-21.59,18.46-35.2,25.24-48.13-1.92-4.94-2.69-9.22-4.95-12.36-11.29-15.71-27.82-23.71-43.07-11.49-25.34,20.3-45.89,7.49-67.88-3.86l10.06-13.16c15.6,14.43,31.05,1.92,46.83.42,18.55-1.77,37.38-.42,57.18-.42V212H205.39c-1-18.26-1.81-34.41-2.78-53h37.45c.73-16.48,1.38-30.94,2.18-49.08l-49.9-41L239.77,9.12c-44.41,8.78-77.05-8.83-108,15.5-5.59,4.39-19.45-1.91-29.39-3.86-11.59-2.27-23.26-8-34.55-7.23-22,1.57-32.87.38-57.15-14.38Z"/><path class="cls-1" d="M485.18,104.38l25.65-13.15V485.85l-10.64,4.33L510.83,499c2.48,11.32-1.78,13.52-12.83,13.48-153.9-.48-307.8-.33-461.7-.33.17-18.09,13.69-12.9,22.94-12.95,59.42-.39,118.85-.2,175.85-.2l16.52-16.95c-1-2.69-1.15-7.18-3.23-8.46-8.45-5.22-17.09-12-26.37-13.46-14.12-2.25-28.84-.59-43.29-.59V432.13l49.32,8.4,35.43-45.31c9.62,31.6-1.05,66.13,5.86,101.06l22.57,4.91c1.73-38.1.45-74.55.92-110.91.43-33.9-1.08-67.95,12.81-101.63,0,27.7-.76,55.43.21,83.09,1,27.12-5.38,55.58,8.19,85.3l-15.25,21.6,36,9.35,15.4-22.07c10.93,14.62,18.64,24.94,27.51,36.79l24.09-13.94c33.2,13.35,33.2,13.35,80.45-6.72,3.19-20.87,3.42-42.57,10.38-61.7,5.74-15.78-31.74-35.61,5.56-50.4l-64.53-5,.33-8.21L483,352.62c.76-7.13,1.4-13.08,2.55-23.73h-75l0-11.09c14.08-1,28.16-2.36,42.26-2.84,14.47-.5,29-.11,49.3-.11L487.91,280.3,497.34,269l-25.66-28.12,25-9.11c-5.07-23.05-10.24-46.51-16-72.81l-22.12-22.68,26.64-9Z"/><path class="cls-1" d="M510.83,64.92,467.12,86.74c10.29-18.84,14.17-25.94,19.57-35.81l-13-19.31L484,19.81,472.35-.85h38.48Z"/><path class="cls-1" d="M395.4-.85C389.71,11.47,384,23.79,376.56,40c-7.23-10.17-13.43-18.91-19.63-27.65L369.75-.85Z"/><path class="cls-1" d="M433.88-.85l-16,13.16L408.23-.85Z"/><path class="cls-1" d="M356.93,12.31c-9.73-2-24.56,6.52-25.65-13.16h25.65Z"/><path class="cls-1" d="M164.93,433.23c-1.15,11.45-1.74,17.4-2.86,28.52l-31-11.43c-23.08,8.76-48.88,23.55-80.25,22.22-7.29-38.05,25.94-32.72,38.61-37.28C110.21,427.77,135.48,433.23,164.93,433.23Z"/><path class="cls-1" d="M383.75,417.83V396h74.6v21.82Z"/><path class="cls-1" d="M458.38,445.42v22.25c-28.71,16.71-49.81-6.39-83.05-13.54C408.1,441.31,432.85,449,458.38,445.42Z"/><path class="cls-1" d="M147.59,127.4c36.44-29,36.44-29,70.71,0Z"/><path class="cls-1" d="M175.14,208.4H154V158.22h21.18Z"/><path class="cls-1" d="M356.91,243.75c33.78-11,67.71-5.83,101.8-2.37C425.16,251,390.9,248,356.91,243.75Z"/><path class="cls-1" d="M126.13,258.85H50.2c-.17-2.15-.33-4.31-.49-6.46,13-1.11,26-2.63,39-3.19,12.78-.55,25.6-.12,38.41-.12Z"/><path class="cls-1" d="M98.25,119.64V194l-6.89,1.12c-1.26-12.61-3-25.19-3.62-37.83-.63-12.38-.14-24.83-.14-37.25Z"/><path class="cls-1" d="M152.87,87.51V34.37L183,63.6Z"/><path class="cls-1" d="M405.68,365.17H346C365.41,350.3,385.93,356,405.68,365.17Z"/><path class="cls-1" d="M51.36,194.51V131.86c4.78,2.44,10.16,3.85,10.21,5.42.59,18.92.38,37.87.38,56.81Z"/><path class="cls-1" d="M51.07,396.05H97.93l.48,8.13L52,407.32Q51.53,401.7,51.07,396.05Z"/><path class="cls-1" d="M124,123.78c-9.9-17.79-15.71-28.23-23.56-42.32L124,77.22Z"/><path class="cls-1" d="M358.87,172.43h46.86l.48,8.13-46.43,3.15Q359.33,178.07,358.87,172.43Z"/><path class="cls-1" d="M440.65,181.23,475,201.46C452,220.91,445.35,198.4,440.65,181.23Z"/><path class="cls-1" d="M174.94,404.65H140.89q-.27-3.43-.55-6.87L174.81,393C174.85,396.89,174.9,400.77,174.94,404.65Z"/><path class="cls-1" d="M119.63,334.61l19.51,31-24.47,1.67c-.75-10.51-1.3-18.25-1.85-26Z"/><path class="cls-1" d="M31.33,366.41H12.89V343.76L19,339.12C23.07,348.11,27.13,357.11,31.33,366.41Z"/><ellipse class="cls-1" cx="94.01" cy="222.77" rx="4.53" ry="18.6"/><ellipse class="cls-1" cx="55.54" cy="222.77" rx="4.53" ry="18.6"/><path class="cls-1" d="M21.29,251.16V273l-6.1,1-5-21.41Z"/><path class="cls-1" d="M393.37,325.75H372.1l-1-6.25L392,314.39Q392.67,320.08,393.37,325.75Z"/><path class="cls-1" d="M457.5,102.14H436.22c-.32-2.09-.65-4.17-1-6.26l20.87-5.1Z"/><ellipse class="cls-1" cx="94.01" cy="51.77" rx="4.53" ry="18.6"/><path class="cls-1" d="M484,105.76l-10.48-9.17,4.05-4.14,8.94,10.74C485.68,104.05,484.85,104.91,484,105.76Z"/><ellipse class="cls-1" cx="145.31" cy="295.12" rx="3.02" ry="9.3"/><ellipse class="cls-1" cx="350.51" cy="295.12" rx="3.02" ry="9.3"/><ellipse class="cls-1" cx="94.01" cy="308.27" rx="3.02" ry="9.3"/><ellipse class="cls-1" cx="55.54" cy="321.42" rx="3.02" ry="9.3"/><ellipse class="cls-1" cx="350.51" cy="321.42" rx="9.07" ry="3.1"/><path class="cls-1" d="M112.09,342.53l-10.48-9.17q2-2.07,4-4.15L114.59,340Z"/><ellipse class="cls-1" cx="350.51" cy="71.5" rx="3.02" ry="9.3"/><ellipse class="cls-1" cx="68.36" cy="360.88" rx="3.02" ry="9.3"/><ellipse class="cls-1" cx="55.54" cy="58.35" rx="3.02" ry="9.3"/><ellipse class="cls-1" cx="453.11" cy="32.04" rx="9.07" ry="3.1"/><ellipse class="cls-1" cx="196.61" cy="400.35" rx="3.02" ry="9.3"/><ellipse class="cls-1" cx="350.51" cy="400.35" rx="3.02" ry="9.3"/></svg>